# xmcd CD database file
#
# Track frame offsets:
#	150
#	11649
#	24267
#	41773
#	55223
#	72464
#	86279
#	98940
#	117819
#	131412
#
# Disc length: 1955 seconds
#
# Revision: 0
# Processed by: cddbd v1.5.2PL0 Copyright (c) Steve Scherf et al.
# Submitted via: CDex 1.51
#
DISCID=7b07a10a
DTITLE=Tim McGraw - Not A Moment Too Soon
DYEAR=1994
DGENRE=Country
TTITLE0=It Doesn't Get Any Countrier Than This
TTITLE1=Give It To Me Strait
TTITLE2=Wouldn't Want It Any Other Way
TTITLE3=Down On The Farm
TTITLE4=Not A Moment Too Soon
TTITLE5=Indian Outlaw
TTITLE6=Refried Dreams
TTITLE7=Don't Take The Girl
TTITLE8=40 Days And 40 Nights
TTITLE9=Ain't That Just Like A Dream
EXTD=YEAR: 1994
EXTT0=
EXTT1=
EXTT2=
EXTT3=
EXTT4=
EXTT5=
EXTT6=
EXTT7=
EXTT8=
EXTT9=
PLAYORDER=
